<svg xmlns="http://www.w3.org/2000/svg" width="325" height="375" viewBox="0 0 43 43" shape-rendering="crispEdges">
  <path transform="translate(0, -3.14)" stroke="#000000" d="M3 3.5h7m2 0h1m1 0h1m1 0h2m1 0h1m1 0h1m1 0h1m3 0h1m2 0h2m1 0h7M3 4.5h1m5 0h1m3 0h1m3 0h1m3 0h2m1 0h3m2 0h1m3 0h1m5 0h1M3 5.5h1m1 0h3m1 0h1m1 0h2m1 0h1m2 0h1m1 0h1m1 0h5m1 0h1m1 0h2m2 0h1m1 0h3m1 0h1M3 6.5h1m1 0h3m1 0h1m1 0h1m1 0h3m1 0h1m3 0h3m2 0h4m1 0h1m1 0h1m1 0h3m1 0h1M3 7.5h1m1 0h3m1 0h1m1 0h1m2 0h3m1 0h1m7 0h1m1 0h2m1 0h1m1 0h1m1 0h3m1 0h1M3 8.5h1m5 0h1m1 0h4m2 0h2m2 0h1m1 0h2m5 0h1m2 0h1m5 0h1M3 9.5h7m1 0h1m1 0h1m1 0h1m1 0h1m1 0h1m1 0h1m1 0h1m1 0h1m1 0h1m1 0h1m1 0h1m1 0h7M11 10.5h1m7 0h1m3 0h1m1 0h2m1 0h2m1 0h1M3 11.5h1m1 0h5m3 0h5m3 0h4m1 0h1m3 0h2m1 0h5M3 12.5h1m2 0h3m2 0h2m5 0h3m4 0h1m1 0h1m1 0h4m2 0h2m1 0h1M5 13.5h5m3 0h1m2 0h1m3 0h2m1 0h1m1 0h2m1 0h1m4 0h1m4 0h2M10 14.5h2m1 0h1m1 0h3m1 0h3m2 0h2m4 0h8m1 0h1M4 15.5h2m3 0h1m2 0h1m2 0h2m2 0h3m1 0h1m3 0h4m1 0h5m1 0h2M4 16.5h1m2 0h1m2 0h1m1 0h4m4 0h1m1 0h1m2 0h2m4 0h2m1 0h1m3 0h2M5 17.5h2m2 0h1m1 0h5m1 0h1m2 0h1m3 0h1m4 0h8M3 18.5h2m3 0h1m1 0h1m2 0h12m1 0h4m1 0h1m1 0h3m2 0h2M4 19.5h1m1 0h4m2 0h2m1 0h1m2 0h2m2 0h1m1 0h1m2 0h1m2 0h3m4 0h2M3 20.5h1m1 0h1m2 0h1m5 0h1m2 0h2m1 0h2m1 0h1m11 0h1m2 0h1M7 21.5h1m1 0h2m2 0h1m1 0h5m1 0h2m2 0h3m1 0h1m3 0h2m1 0h1m1 0h2M3 22.5h2m1 0h3m1 0h1m1 0h1m1 0h1m2 0h2m2 0h5m3 0h2m4 0h3m1 0h1M4 23.5h2m2 0h3m2 0h3m1 0h3m1 0h2m2 0h1m1 0h3m1 0h1m1 0h1m1 0h1m1 0h1M3 24.5h1m2 0h3m1 0h1m2 0h3m2 0h1m2 0h3m1 0h2m1 0h2m1 0h1m4 0h1m2 0h1M4 25.5h1m4 0h2m1 0h6m1 0h1m1 0h1m1 0h1m1 0h1m1 0h1m1 0h8m1 0h1M5 26.5h2m1 0h1m2 0h1m2 0h1m2 0h2m4 0h1m2 0h1m1 0h1m1 0h1m1 0h4m3 0h1M3 27.5h3m2 0h2m5 0h2m4 0h1m1 0h5m1 0h3m5 0h1m1 0h1M3 28.5h3m1 0h2m3 0h4m2 0h3m3 0h1m2 0h1m2 0h1m1 0h2m1 0h1M3 29.5h1m3 0h1m1 0h1m4 0h1m2 0h1m5 0h4m1 0h2m1 0h2m1 0h1m1 0h1m1 0h2M3 30.5h1m7 0h1m2 0h1m1 0h1m2 0h1m4 0h1m5 0h2m3 0h1m1 0h3M3 31.5h1m1 0h1m2 0h2m1 0h3m2 0h1m2 0h1m1 0h1m3 0h11m3 0h1M11 32.5h1m5 0h2m1 0h1m1 0h3m1 0h3m1 0h2m3 0h2M3 33.5h7m3 0h1m3 0h1m1 0h2m2 0h2m2 0h1m1 0h1m1 0h1m1 0h1m1 0h1m1 0h2M3 34.5h1m5 0h1m1 0h2m2 0h1m2 0h1m1 0h3m1 0h6m1 0h1m3 0h2m2 0h1M3 35.5h1m1 0h3m1 0h1m1 0h3m1 0h1m3 0h1m2 0h1m1 0h1m2 0h1m2 0h6m1 0h3M3 36.5h1m1 0h3m1 0h1m1 0h1m1 0h2m1 0h1m1 0h1m2 0h1m1 0h1m1 0h1m1 0h1m2 0h1m1 0h2m1 0h2M3 37.5h1m1 0h3m1 0h1m1 0h1m3 0h2m1 0h2m1 0h2m2 0h2m2 0h2m1 0h1m6 0h1M3 38.5h1m5 0h1m2 0h1m2 0h2m1 0h1m2 0h5m1 0h1m1 0h2m4 0h3m1 0h1M3 39.5h7m1 0h2m1 0h2m1 0h4m1 0h1m2 0h2m1 0h6m1 0h1m2 0h2"/>
  <text class="setup-key-font" x="50%" y="92.85714285714286%" dominant-baseline="middle" text-anchor="middle" font-weight="bolder" font-size="3px" font-family="Arial" fill="black">AAA-0000</text>
</svg>